<svg width="4173" height="3445" viewBox="0 0 4173 3445" fill="none" xmlns="http://www.w3.org/2000/svg">
<line x1="3849" y1="1986.5" x2="3522" y2="1986.5" stroke="#C4C4C4" stroke-width="5"/>
<line x1="3127" y1="2022.5" x2="3013" y2="2022.5" stroke="#C4C4C4" stroke-width="5"/>
<line x1="3124" y1="2246.5" x2="2686" y2="2246.5" stroke="#C4C4C4" stroke-width="5"/>
<line x1="2734" y1="2558.5" x2="2596" y2="2558.5" stroke="#C4C4C4" stroke-width="5"/>
<line x1="2518" y1="2558.5" x2="2464" y2="2558.5" stroke="#C4C4C4" stroke-width="5"/>
<line x1="3854" y1="2231.5" x2="3611" y2="2231.5" stroke="#C4C4C4" stroke-width="5"/>
<line x1="3843" y1="2370.5" x2="3802" y2="2370.5" stroke="#C4C4C4" stroke-width="5"/>
<line x1="3859" y1="1731.5" x2="3522" y2="1731.5" stroke="#C4C4C4" stroke-width="5"/>
<line x1="3524.5" y1="1809" x2="3524.5" y2="1984" stroke="#C4C4C4" stroke-width="5"/>
<line x1="3524.5" y1="1984" x2="3524.5" y2="2234" stroke="#C4C4C4" stroke-width="5"/>
<line x1="3126.5" y1="2020" x2="3126.5" y2="2249" stroke="#C4C4C4" stroke-width="5"/>
<line x1="2731.5" y1="2247" x2="2731.5" y2="2556" stroke="#C4C4C4" stroke-width="5"/>
<line x1="2805.5" y1="3128" x2="2805.5" y2="3435" stroke="#C4C4C4" stroke-width="5"/>
<line x1="2942.5" y1="3129" x2="2942.5" y2="3436" stroke="#C4C4C4" stroke-width="5"/>
<line x1="3023" y1="3128.5" x2="3086" y2="3128.5" stroke="#C4C4C4" stroke-width="5"/>
<line x1="2803" y1="3128.5" x2="2866" y2="3128.5" stroke="#C4C4C4" stroke-width="5"/>
<line x1="2520" y1="3128.5" x2="2734" y2="3128.5" stroke="#C4C4C4" stroke-width="5"/>
<line x1="2522.5" y1="3131" x2="2522.5" y2="3435" stroke="#C4C4C4" stroke-width="5"/>
<line x1="1600.5" y1="3131" x2="1600.5" y2="3435" stroke="#C4C4C4" stroke-width="5"/>
<line x1="1480.5" y1="2784" x2="1480.5" y2="3018" stroke="#C4C4C4" stroke-width="5"/>
<line x1="1599.5" y1="2782" x2="1599.5" y2="3018" stroke="#C4C4C4" stroke-width="5"/>
<line x1="1653.5" y1="2673" x2="1653.5" y2="2784" stroke="#C4C4C4" stroke-width="5"/>
<line x1="1599.5" y1="2556" x2="1599.5" y2="2675" stroke="#C4C4C4" stroke-width="5"/>
<line x1="316.5" y1="3128" x2="316.5" y2="3436" stroke="#C4C4C4" stroke-width="5"/>
<line x1="218.5" y1="2846" x2="218.5" y2="3019" stroke="#C4C4C4" stroke-width="5"/>
<line x1="218.5" y1="3089" x2="218.5" y2="3132" stroke="#C4C4C4" stroke-width="5"/>
<line x1="575.5" y1="3128" x2="575.5" y2="3432" stroke="#C4C4C4" stroke-width="5"/>
<line x1="1598" y1="3133.5" x2="1443" y2="3133.5" stroke="#C4C4C4" stroke-width="5"/>
<line x1="1598" y1="3015.5" x2="1564" y2="3015.5" stroke="#C4C4C4" stroke-width="5"/>
<line x1="1406" y1="3015.5" x2="1358" y2="3015.5" stroke="#C4C4C4" stroke-width="5"/>
<line x1="1656.03" y1="2783.5" x2="1358.03" y2="2786.5" stroke="#C4C4C4" stroke-width="5"/>
<path d="M1656.02 2674L1597 2674" stroke="#C4C4C4" stroke-width="5"/>
<line x1="246" y1="3130.5" x2="20" y2="3130.5" stroke="#C4C4C4" stroke-width="5"/>
<line x1="573" y1="3130.5" x2="403" y2="3130.5" stroke="#C4C4C4" stroke-width="5"/>
<line x1="216" y1="2848.5" x2="15" y2="2848.5" stroke="#C4C4C4" stroke-width="5"/>
<line x1="1360.5" y1="3131" x2="1360.5" y2="3425" stroke="#C4C4C4" stroke-width="5"/>
<line x1="1360.5" y1="2560" x2="1360.5" y2="3145" stroke="#C4C4C4" stroke-width="5"/>
<line x1="661" y1="2558.5" x2="216" y2="2558.5" stroke="#C4C4C4" stroke-width="5"/>
<line x1="3851.5" y1="2059" x2="3851.5" y2="2229" stroke="#C4C4C4" stroke-width="5"/>
<line x1="3804.5" y1="2229" x2="3804.5" y2="2370" stroke="#C4C4C4" stroke-width="5"/>
<line x1="3378" y1="804.5" x2="3013" y2="804.5" stroke="#C4C4C4" stroke-width="5"/>
<line x1="3375.5" y1="1080" x2="3375.5" y2="879" stroke="#C4C4C4" stroke-width="5"/>
<line x1="3378" y1="501.5" x2="3013" y2="501.5" stroke="#C4C4C4" stroke-width="5"/>
<line x1="3270.5" y1="135" x2="3270.5" y2="14" stroke="#C4C4C4" stroke-width="5"/>
<line x1="3222" y1="132.5" x2="3273" y2="132.5" stroke="#C4C4C4" stroke-width="5"/>
<line x1="3587" y1="132.5" x2="3638" y2="132.5" stroke="#C4C4C4" stroke-width="5"/>
<line x1="3111" y1="347.5" x2="3222" y2="347.5" stroke="#C4C4C4" stroke-width="5"/>
<line x1="3638" y1="352.5" x2="3758" y2="352.5" stroke="#C4C4C4" stroke-width="5"/>
<line x1="3219.5" y1="350" x2="3219.5" y2="130" stroke="#C4C4C4" stroke-width="5"/>
<line x1="3635.5" y1="355" x2="3635.5" y2="135" stroke="#C4C4C4" stroke-width="5"/>
<line x1="3584.5" y1="135" x2="3584.5" y2="20" stroke="#C4C4C4" stroke-width="5"/>
<line x1="3519.5" y1="638" x2="3519.5" y2="455" stroke="#C4C4C4" stroke-width="5"/>
<line x1="3600" y1="457.5" x2="3522" y2="457.5" stroke="#C4C4C4" stroke-width="5"/>
<line x1="3842" y1="457.5" x2="3764" y2="457.5" stroke="#C4C4C4" stroke-width="5"/>
<line x1="3680.5" y1="634" x2="3680.5" y2="459" stroke="#C4C4C4" stroke-width="5"/>
<line x1="3522" y1="635.5" x2="3849" y2="635.5" stroke="#C4C4C4" stroke-width="5"/>
<line x1="3375.5" y1="807" x2="3375.5" y2="499" stroke="#C4C4C4" stroke-width="5"/>
<line x1="3013" y1="1077.5" x2="3378" y2="1077.5" stroke="#C4C4C4" stroke-width="5"/>
<line x1="3844" y1="2370" x2="3844" y2="2368" stroke="#C4C4C4" stroke-width="10"/>
<line x1="2993.06" y1="10.0002" x2="3859.06" y2="15.0002" stroke="#D5D5D5" stroke-width="20"/>
<line x1="3849" y1="2073" x2="3849" y2="25" stroke="#D5D5D5" stroke-width="20"/>
<line x1="4153" y1="2063" x2="3849" y2="2063" stroke="#D5D5D5" stroke-width="20"/>
<line x1="3013" y1="2024" x2="2685" y2="2024" stroke="#D5D5D5" stroke-width="20"/>
<line x1="661.91" y1="2257" x2="215.91" y2="2253" stroke="#D5D5D5" stroke-width="20"/>
<line x1="226" y1="2561" x2="14" y2="2561" stroke="#D5D5D5" stroke-width="20"/>
<line x1="10" y1="3435" x2="10" y2="2551" stroke="#D5D5D5" stroke-width="20"/>
<line x1="2689" y1="2249" x2="2454" y2="2249" stroke="#D5D5D5" stroke-width="20"/>
<line x1="2464" y1="2561" x2="662" y2="2561" stroke="#D5D5D5" stroke-width="20"/>
<line x1="3094" y1="3435" x2="15" y2="3435" stroke="#D5D5D5" stroke-width="20"/>
<line x1="4059" y1="2375" x2="3840" y2="2375" stroke="#D5D5D5" stroke-width="20"/>
<path d="M3094 2583H3843V2365" stroke="#D5D5D5" stroke-width="20"/>
<line x1="4163" y1="2053" x2="4163" y2="2274" stroke="#D5D5D5" stroke-width="20"/>
<line x1="4165.94" y1="2267.2" x2="4050.94" y2="2378.2" stroke="#D5D5D5" stroke-width="20"/>
<line x1="3003" y1="2024" x2="3003" y2="9" stroke="#D5D5D5" stroke-width="20"/>
<line x1="2679" y1="2247" x2="2679" y2="2014" stroke="#D5D5D5" stroke-width="20"/>
<line x1="2464" y1="2570" x2="2464" y2="2243" stroke="#D5D5D5" stroke-width="20"/>
<line x1="3084" y1="3435" x2="3084" y2="2573" stroke="#D5D5D5" stroke-width="20"/>
<line x1="652" y1="2571" x2="652" y2="2247" stroke="#D5D5D5" stroke-width="20"/>
<line x1="216" y1="2561" x2="216" y2="2243" stroke="#D5D5D5" stroke-width="20"/>
</svg>
