<?xml version="1.0" encoding="UTF-8"?>
<!DOCTYPE svg  PUBLIC '-//W3C//DTD SVG 1.1//EN'  'http://www.w3.org/Graphics/SVG/1.1/DTD/svg11.dtd'>
<svg width="595pt" height="595pt" overflow="visible" version="1.1" viewBox="0 0 595.2 595.2" xmlns="http://www.w3.org/2000/svg">
 <path d="m292.94 481.92 9e-4 20.536-0.9363 1e-4c-1.0829-0.0281-1.8675 0.3626-1.9055 0.9487l1e-3 24.333c0.0466 0.5752 0.8163 0.9599 1.9056 0.9523l11.22-4e-4c1.0893 0.0075 1.8589-0.3773 1.9055-0.9526l-1e-3 -24.332c-0.038-0.5861-0.8227-0.9768-1.9056-0.9486l-0.9362 1e-4 -9e-4 -20.537c50.104-1.9435 91.488-8.3909 120.47-19.063 28.98-10.672 45.556-25.567 49.081-43.373 0.8422-16.045 1.5135-32.099 2.0137-48.158l3.0854 0.0961v31.134c-0.0393 0.3874 0.3999 0.8265 0.7872 0.7873h23.106c0.3874 0.0392 0.8266-0.3999 0.7873-0.7873v-56l10.522 3.4183-0.2892 0.8904c-0.3614 1.0212-0.2323 1.8882 0.3134 2.1055l23.142 7.5184c0.5616 0.1334 1.1653-0.4798 1.4947-1.5181l3.4667-10.67c0.3438-1.0337 0.2157-1.8846-0.3171-2.1067l-23.142-7.5184c-0.5692-0.1449-1.1832 0.4807-1.4911 1.5193l-0.2892 0.8904-13.41-4.3567v-153.14c0.0393-0.3874-0.3999-0.8265-0.7873-0.7873h-23.106c-0.3873-0.0392-0.8265 0.3999-0.7872 0.7873v12.589l-4.404 0.2037c-0.6703-14.494-1.48-28.982-2.4289-43.461l13.644-0.218c6.2662-3.3593 13.639-17.019 13.217-24.487l0.412-16.338c0.3033-2.9916-3.088-6.3829-6.0796-6.0796h-30.609c-4.5763-4.137-11.074-6.6342-17.242-6.6273h-12.067l3.478-4.7873 0.7574 0.55027c0.8596 0.65926 1.724 0.80444 2.0993 0.35257l14.302-19.686c0.3005-0.49284-0.0961-1.2565-0.9818-1.8906l-9.077-6.5945c-0.8768-0.64636-1.7257-0.78752-2.1015-0.34948l-14.302 19.686c-0.3138 0.49656 0.0914 1.2738 0.9841 1.8876l0.7574 0.55027-7.4693 10.281h-244.47l-7.4626-10.271 0.7574-0.5503c0.8926-0.61379 1.2978-1.391 0.9841-1.8876l-14.303-19.685c-0.3759-0.43802-1.2247-0.29683-2.1015 0.34957l-9.0767 6.5948c-0.8857 0.63417-1.2822 1.3978-0.9818 1.8907l14.303 19.685c0.3752 0.45185 1.2397 0.30663 2.0992-0.35265l0.7574-0.5503 3.4707 4.7768h-12.037c-6.169-0.00695-12.666 2.4903-17.242 6.6273h-30.609c-2.9916-0.3033-6.3829 3.088-6.0796 6.0796l0.41201 16.338c-0.42182 7.4685 6.951 21.128 13.217 24.487l13.644 0.218c-0.949 14.478-1.7587 28.967-2.429 43.461l-4.404-0.2037v-12.589c0.0393-0.3874-0.3999-0.8265-0.7872-0.7873h-23.107c-0.38739-0.0392-0.82654 0.3999-0.78726 0.7873v153.15l-13.413 4.3582-0.28932-0.8904c-0.30789-1.0386-0.9219-1.6641-1.4911-1.5192l-23.142 7.5194c-0.53274 0.2221-0.66077 1.073-0.31696 2.1067l3.4671 10.67c0.32943 1.0383 0.93317 1.6515 1.4947 1.518l23.142-7.5193c0.54571-0.2173 0.67473-1.0843 0.31333-2.1055l-0.2893-0.8904 10.524-3.4197v55.985c-0.03928 0.3874 0.39987 0.8265 0.78726 0.7873h23.107c0.3873 0.0392 0.8265-0.3999 0.7872-0.7873v-31.134l3.0854-0.0961c0.5002 16.059 1.1715 32.114 2.0137 48.158 3.528 17.805 20.076 32.695 49.038 43.366 28.963 10.671 70.341 17.123 120.53 19.07z" fill="none" stroke="#000" stroke-width="4.56"/>
 <path d="m302.28 481.92-6e-3 -146.77c-0.2716-11.797 6.2741-24.645 15.977-31.36 9.3841-7.1537 23.626-9.4099 34.762-5.507l148.6 48.276" fill="none" stroke="#A6A6A6" stroke-width=".96"/>
 <path d="m501.61 336.73-6.1217-1.9888-139.59-45.351c-11.303-3.3871-21.5-13.583-24.888-24.886-3.9036-11.136-1.6483-25.377 5.5048-34.762l94.858-130.57" fill="none" stroke="#A6A6A6" stroke-width=".96"/>
 <path d="m419.82 99.17-90.87 125.08c-6.7144 9.7033-19.562 16.25-31.359 15.979-11.797 0.2714-24.645-6.2746-31.359-15.978l-86.27-118.74-4.6087-6.3432" fill="none" stroke="#A6A6A6" stroke-width=".96"/>
 <path d="m93.59 346.57 148.6-48.284c11.135-3.9033 25.377-1.6479 34.761 5.5051 9.7032 6.7143 16.25 19.561 15.979 31.358l6e-3 146.77" fill="none" stroke="#A6A6A6" stroke-width=".96"/>
 <path d="m163.8 99.17 94.874 130.58c7.1535 9.3843 9.4094 23.626 5.5063 34.762-3.3874 11.303-13.583 21.499-24.886 24.887l-145.7 47.343" fill="none" stroke="#A6A6A6" stroke-width=".96"/>
 <path d="m292.93 502.45 3e-4 17.111c-0.0324 0.3196 0.3298 0.6818 0.6494 0.6494l8.0483-1e-4c0.3195 0.0324 0.6818-0.3299 0.6494-0.6494l-3e-4 -17.111" fill="none" stroke="#000" stroke-width="1.68"/>
 <path d="m512.13 349.98 16.274 5.2873c0.2939 0.1295 0.7504-0.103 0.8183-0.417l2.4869-7.6544c0.1296-0.2939-0.103-0.7503-0.4169-0.8183l-16.274-5.2873" fill="none" stroke="#000" stroke-width="1.68"/>
 <path d="m434.85 94.385 10.057-13.843c0.214-0.23949 0.1338-0.74547-0.1437-0.90709l-6.5113-4.7306c-0.2395-0.21403-0.7455-0.13388-0.9071 0.14368l-10.057 13.843" fill="none" stroke="#000" stroke-width="1.68"/>
 <path d="m167.89 88.898-10.058-13.843c-0.1616-0.27757-0.6676-0.35771-0.9071-0.14366l-6.5111 4.7307c-0.2776 0.16162-0.3577 0.66761-0.1437 0.90709l10.058 13.843" fill="none" stroke="#000" stroke-width="1.68"/>
 <path d="m80.177 341.1-16.273 5.2876c-0.31392 0.0679-0.5465 0.5244-0.41694 0.8182l2.4871 7.6544c0.06794 0.314 0.5244 0.5465 0.8183 0.417l16.273-5.2876" fill="none" stroke="#000" stroke-width="1.68"/>
 <path d="m292.93 481.92 4.6735 0.092 4.6736-0.092" fill="none" stroke="#A6A6A6" stroke-width=".96"/>
 <path d="m338.1 394.09c3.4445 0.0915 7.5884-1.4717 10.442-4.3252s4.4168-6.9974 4.3252-10.442v-167.41c0.0916-3.4445-1.4717-7.5883-4.3252-10.442-2.8535-2.8536-6.9974-4.4168-10.442-4.3252h-80.99c-3.4445-0.0916-7.5884 1.4716-10.442 4.3252-2.8535 2.8535-4.4167 6.9973-4.3252 10.442v167.41c-0.0915 3.4445 1.4717 7.5884 4.3252 10.442s6.9974 4.4167 10.442 4.3252z" fill="none" stroke="#A6A6A6" stroke-width=".96"/>
 <path d="m292.93 502.45v17.111c-0.0325 0.3196 0.3298 0.6818 0.6493 0.6494h8.0483c0.3196 0.0324 0.6818-0.3298 0.6495-0.6494v-17.111" fill="none" stroke="#000" stroke-width="1.68"/>
 <path d="m297.6 255.57c-5.0723-0.0859-10.492 2.1424-14.037 5.7714-3.6413 3.5322-5.8884 8.944-5.8202 14.017-0.0682 5.0726 2.1789 10.484 5.8202 14.017 3.545 3.629 8.9646 5.8573 14.037 5.7714 5.0724 0.0859 10.492-2.1424 14.037-5.7714 3.6413-3.5322 5.8884-8.944 5.8202-14.017 0.0682-5.0727-2.1789-10.484-5.8202-14.017-3.545-3.629-8.9645-5.8573-14.037-5.7714z" fill="none" stroke="#A6A6A6" stroke-width=".96"/>
 <path d="m297.6 262.71c-6.2274-0.6289-13.284 6.4305-12.654 12.658-0.631 6.2272 6.4261 13.287 12.654 12.658 6.2274 0.6289 13.284-6.4305 12.654-12.658 0.631-6.2272-6.4261-13.287-12.654-12.658z" fill="none" stroke="#A6A6A6" stroke-width=".96"/>
 <path d="m242.41 308.98-97.217-3.1166-7.531 7.9494-1.3388 12.384c-0.9966 2.8168-3.9703 5.1953-6.9372 5.5488-2.9387 0.5399-6.4828-0.8527-8.2679-3.2487l-0.7162-1.9213-2.1346-5.7267-4.3695-11.722c-0.7859-3.5977-0.7859-7.4475 0-11.045 0.534-1.8741 2.1279-3.4074 4.3695-4.0424l2.0004-0.3625 0.4916-0.03h24.434l97.217-0.2173" fill="none" stroke="#A6A6A6" stroke-width=".24"/>
 <path d="m472.53 196.38c2.6946 58.254 3.1347 116.66 1.3186 174.94" fill="none" stroke="#000" stroke-width="1.68"/>
 <path d="m478.49 364.15v-142.15c-0.3867-3.8146 3.9377-8.1391 7.7524-7.7523h6.0564c3.8147-0.3868 8.1391 3.9377 7.7524 7.7523v142.15c0.3867 3.8147-3.9377 8.1391-7.7524 7.7523h-6.0564c-3.8147 0.3868-8.1391-3.9376-7.7524-7.7523z" fill="none" stroke="#000" stroke-width="1.68"/>
 <path d="m122.68 196.38c-2.6946 58.254-3.1347 116.66-1.3186 174.94" fill="none" stroke="#000" stroke-width="1.68"/>
 <path d="m116.71 364.15v-142.15c0.3867-3.8146-3.9377-8.1391-7.7524-7.7523h-6.0564c-3.8147-0.3868-8.1391 3.9377-7.7524 7.7523v142.15c-0.38673 3.8147 3.9377 8.1391 7.7524 7.7523h6.0564c3.8147 0.3868 8.1391-3.9376 7.7524-7.7523z" fill="none" stroke="#000" stroke-width="1.68"/>
 <path d="m0.48002 0.48002v594.24h594.24v-594.24z" fill="none" stroke="#fff" stroke-width=".24"/>
 <path d="m460.68 105.8h-326.16" fill="none" stroke="#000" stroke-width="1.68"/>
 <path d="m125.1 152.92h344.99" fill="none" stroke="#000" stroke-width="1.68"/>
 <path d="m476.93 371.42v-175.24" fill="none" stroke="#000" stroke-width="1.68"/>
 <path d="m118.27 371.42v-175.24" fill="none" stroke="#000" stroke-width="1.68"/>
 <path d="m501.61 346.55v-9.828" fill="none" stroke="#000" stroke-width="1.68"/>
 <path d="m431.37 99.17h-11.553" fill="none" stroke="#000" stroke-width="1.68"/>
 <path d="m175.35 99.17h-11.554" fill="none" stroke="#000" stroke-width="1.68"/>
 <path d="m93.591 336.74v9.8281" fill="none" stroke="#000" stroke-width="1.68"/>
</svg>
