<?xml version="1.0" encoding="UTF-8"?>
<!DOCTYPE svg  PUBLIC '-//W3C//DTD SVG 1.1//EN'  'http://www.w3.org/Graphics/SVG/1.1/DTD/svg11.dtd'>
<svg width="595pt" height="595pt" overflow="visible" version="1.1" viewBox="0 0 595.2 595.2" xmlns="http://www.w3.org/2000/svg">
 <path d="m137.51 86.462v-11.342c0.0913-0.90028-0.9293-1.9208-1.8296-1.8296h-23.784c-0.9003-0.09127-1.9208 0.9293-1.8296 1.8296l-1e-4 455.57h375.06l-1e-4 -455.57c0.0912-0.90028-0.9293-1.9208-1.8296-1.8296h-23.784c-0.9003-0.09127-1.9209 0.9293-1.8296 1.8296v11.342c-51.872-14.51-105.72-21.962-160.09-21.947-54.369-0.01491-108.22 7.4363-160.09 21.947z" fill="none" stroke="#000" stroke-width="4.56"/>
 <path d="m137.51 95.817c51.819-14.76 105.68-22.347 160.09-22.331 54.404-0.01573 108.27 7.571 160.09 22.331" fill="none" stroke="#000" stroke-width="1.68"/>
 <path d="m457.69 121.18c-51.802-14.818-105.68-22.438-160.09-22.422-54.413-0.01605-108.29 7.604-160.09 22.422v2.7896h320.18z" fill="none" stroke="#000" stroke-width="4.56"/>
 <path d="m0.48002 0.48002v594.24h594.24v-594.24z" fill="none" stroke="#fff" stroke-width=".24"/>
 <path d="m457.69 86.462v34.714" fill="none" stroke="#000" stroke-width="1.68"/>
 <path d="m137.51 86.462v34.714" fill="none" stroke="#000" stroke-width="1.68"/>
 <path d="m137.51 146.41h-27.444" fill="none" stroke="#000" stroke-width="1.68"/>
 <path d="m457.69 146.41h27.444" fill="none" stroke="#000" stroke-width="1.68"/>
 <path d="m457.69 123.97v22.447" fill="none" stroke="#000" stroke-width="1.68"/>
 <path d="m137.51 123.97v22.447" fill="none" stroke="#000" stroke-width="1.68"/>
 <path d="m119.22 530.68v-384.27" fill="none" stroke="#000" stroke-width="1.68"/>
 <path d="m137.51 132.02h320.18" fill="none" stroke="#000" stroke-width="1.68"/>
 <path d="m475.98 146.41v384.27" fill="none" stroke="#000" stroke-width="1.68"/>
</svg>
